<svg width="27" height="26" viewBox="0 0 27 26" fill="none" xmlns="http://www.w3.org/2000/svg">
<path d="M23.7449 20.8758C22.9825 20.5636 22.6563 20.1492 22.6879 19.5309C22.7203 18.8092 22.3109 18.2806 22.1164 18.0717C22.2339 17.623 22.5772 16.0707 22.1168 14.7223C21.622 13.2791 20.1114 11.0749 18.5528 8.90817C17.9147 8.01837 17.8846 7.05116 17.8497 5.93119C17.8163 4.86297 17.7786 3.65213 17.1829 2.30609C16.5352 0.840445 15.2355 0 13.6169 0C12.6541 0 11.6657 0.30092 10.9052 0.825527C9.34772 1.9004 9.55359 4.24391 9.68981 5.79463C9.70848 6.00698 9.72604 6.20756 9.73627 6.37882C9.82697 7.89757 9.74445 8.69804 9.63653 8.94133C9.56671 9.10032 9.223 9.5528 8.85925 10.0319C8.48306 10.5273 8.05657 11.0889 7.70698 11.6123C7.28987 12.242 6.95314 13.2045 6.6275 14.1353C6.38924 14.8164 6.16419 15.4598 5.9451 15.8442C5.52987 16.5838 5.63319 17.2735 5.71946 17.5922C5.56226 17.7014 5.33517 17.9164 5.14345 18.3217C4.91175 18.8161 4.44161 19.0818 3.46401 19.2698C3.01476 19.3617 2.70497 19.5506 2.543 19.8312C2.3073 20.2396 2.43568 20.7528 2.55281 21.1035C2.72586 21.6191 2.61802 21.9454 2.42195 22.5379C2.37677 22.6746 2.32554 22.8294 2.27362 23.0002C2.19187 23.2696 2.22137 23.5146 2.36109 23.7284C2.73029 24.2928 3.80763 24.4918 4.91669 24.6228C5.57888 24.7014 6.30365 24.9662 7.00463 25.2225C7.69146 25.4734 8.40165 25.733 9.04722 25.8118C9.14534 25.8241 9.24252 25.8304 9.33621 25.8304C10.3109 25.8304 10.7513 25.1836 10.8909 24.9179C11.241 24.8464 12.4486 24.6176 13.6931 24.587C14.9356 24.5515 16.1379 24.7968 16.4784 24.8731C16.5855 25.0781 16.8677 25.5461 17.3177 25.7873C17.565 25.9225 17.9091 26 18.2616 26H18.2617C18.6381 26 19.3543 25.911 19.9211 25.3147C20.4864 24.7156 21.899 23.9508 22.9305 23.3923C23.1606 23.2677 23.376 23.1511 23.5648 23.0458C24.1442 22.7246 24.4604 22.2656 24.4322 21.7866C24.4086 21.3888 24.1453 21.0398 23.7449 20.8758ZM10.9179 20.7605C10.8458 20.2524 10.1922 19.7485 9.43526 19.1651C8.81637 18.688 8.11488 18.1473 7.92163 17.6893C7.52225 16.7446 7.83706 15.0835 8.38597 14.2281C8.65722 13.7999 8.87878 13.1504 9.09308 12.5223C9.32444 11.8441 9.56373 11.1428 9.83132 10.8358C10.2551 10.3566 10.6467 9.42408 10.7161 8.68917C11.1129 9.06801 11.7285 9.54871 12.2972 9.54871C12.3847 9.54871 12.4697 9.53729 12.5509 9.51436C12.94 9.402 13.5123 9.07133 14.0657 8.75166C14.5428 8.47597 15.1312 8.13601 15.3526 8.10506C15.7322 8.65013 17.9379 13.5314 18.1633 15.099C18.3416 16.3394 18.1532 17.3647 18.0585 17.7663C17.9823 17.7559 17.8915 17.7475 17.796 17.7475C17.1816 17.7475 17.019 18.0828 16.9766 18.2831C16.8676 18.8033 16.8561 20.4669 16.8549 20.8407C16.6328 21.123 15.5093 22.4521 13.8964 22.6911C13.2394 22.7865 12.6259 22.835 12.073 22.835C11.6004 22.835 11.2988 22.7985 11.1735 22.7795L10.363 21.8521C10.6826 21.6943 11.0021 21.3613 10.9179 20.7605ZM11.9464 5.46848C11.9211 5.47939 11.8962 5.49107 11.8717 5.50351C11.8692 5.44861 11.8635 5.39295 11.8547 5.33711C11.7662 4.82776 11.4285 4.45805 11.0518 4.45805C11.0239 4.45805 10.9959 4.46018 10.9651 4.46487C10.741 4.50221 10.5652 4.67057 10.4689 4.90926C10.5534 4.3855 10.8501 3.99772 11.2022 3.99772C11.6156 3.99772 11.9649 4.55489 11.9649 5.21436C11.9649 5.29747 11.9588 5.38016 11.9464 5.46848ZM15.159 5.86121C15.1968 5.74067 15.2173 5.61024 15.2173 5.47487C15.2173 4.87695 14.8379 4.40852 14.3536 4.40852C13.8804 4.40852 13.4953 4.88684 13.4953 5.47487C13.4953 5.51493 13.4973 5.55509 13.501 5.59515C13.4759 5.58552 13.4515 5.57614 13.4276 5.56711C13.3731 5.40215 13.3456 5.23004 13.3456 5.05435C13.3456 4.33939 13.8025 3.75766 14.3643 3.75766C14.926 3.75766 15.383 4.33939 15.383 5.05435C15.383 5.35177 15.3009 5.63564 15.159 5.86121ZM14.7448 7.25277C14.7367 7.28891 14.7194 7.30494 14.529 7.404C14.4328 7.45404 14.3132 7.51635 14.1634 7.60756L14.0633 7.66817C13.6611 7.91198 12.7194 8.48305 12.4637 8.51655C12.2901 8.5399 12.1827 8.47256 11.9412 8.30846C11.8867 8.27138 11.8287 8.23199 11.7669 8.19235C11.3316 7.90669 11.0515 7.59205 11.0199 7.46904C11.1618 7.35933 11.5137 7.08475 11.6938 6.92218C12.0594 6.58222 12.4273 6.35376 12.6094 6.35376C12.619 6.35376 12.6277 6.35444 12.6368 6.35615C12.8507 6.39391 13.3785 6.60455 13.764 6.75834C13.9422 6.82943 14.096 6.89081 14.2043 6.92968C14.5454 7.04681 14.7232 7.19668 14.7448 7.25277ZM17.8091 23.1402C18.0015 22.2723 18.2232 21.0916 18.1873 20.3956C18.179 20.2374 18.165 20.0653 18.1515 19.8989C18.1261 19.5878 18.0885 19.1253 18.1273 18.9881C18.135 18.9846 18.1435 18.9815 18.153 18.9788C18.1546 19.3768 18.2411 20.1705 18.8758 20.4473C19.065 20.5298 19.2811 20.5716 19.5183 20.5716C20.1542 20.5716 20.8597 20.2597 21.1486 19.9707C21.3188 19.8005 21.4619 19.5924 21.5622 19.4275C21.5841 19.4917 21.5975 19.5756 21.5905 19.6837C21.5527 20.2706 21.8379 21.0492 22.3808 21.3362L22.4598 21.3777C22.6532 21.4791 23.1667 21.7488 23.1749 21.8766C23.1749 21.8766 23.1706 21.8917 23.142 21.9183C23.0133 22.0359 22.5606 22.2671 22.1228 22.4907C21.3461 22.8872 20.4657 23.3367 20.0704 23.7526C19.5137 24.3384 18.8841 24.7319 18.5039 24.7319C18.4581 24.7319 18.4164 24.7261 18.3793 24.7143C17.9664 24.5856 17.6265 23.9898 17.8091 23.1402ZM3.73398 20.926C3.69187 20.729 3.65862 20.5734 3.69434 20.4227C3.72026 20.311 4.27155 20.1913 4.507 20.1402C4.83801 20.0684 5.18036 19.9941 5.40421 19.8582C5.70692 19.6749 5.87085 19.3367 6.01543 19.0383C6.12011 18.8226 6.22821 18.5995 6.35684 18.5263C6.36409 18.522 6.37517 18.5171 6.39631 18.5171C6.63731 18.5171 7.14299 19.0237 7.43436 19.4771C7.50827 19.5914 7.64517 19.8205 7.80356 20.0857C8.27728 20.8783 8.92592 21.9639 9.26469 22.3278C9.56995 22.6548 10.0641 23.2837 9.94257 23.8231C9.85357 24.2415 9.37977 24.5818 9.26801 24.6571C9.22743 24.6663 9.17722 24.671 9.11815 24.671C8.46976 24.671 7.18629 24.1316 6.49673 23.8417L6.39469 23.7989C6.00964 23.6374 5.38103 23.5357 4.77314 23.4373C4.28945 23.359 3.62708 23.2518 3.51728 23.155C3.42829 23.0552 3.53152 22.7306 3.62256 22.4443C3.68812 22.2385 3.7558 22.0257 3.79289 21.803C3.84548 21.4477 3.78359 21.1584 3.73398 20.926Z" fill="white"/>
</svg>
