<svg width="25" height="26" viewBox="0 0 25 26" fill="none" xmlns="http://www.w3.org/2000/svg">
<path d="M18.1296 6.63721C15.6939 6.63721 14.6646 7.67729 12.9683 7.67729C11.2292 7.67729 9.9026 6.64478 7.79194 6.64478C5.72599 6.64478 3.52291 7.77351 2.12387 9.69636C0.159401 12.4079 0.492853 17.5148 3.67454 21.8654C4.81262 23.4228 6.33249 25.1695 8.32595 25.1884H8.36219C10.0947 25.1884 10.6094 24.1732 12.9937 24.1613H13.0299C15.3786 24.1613 15.8498 25.1824 17.575 25.1824H17.6113C19.6047 25.1635 21.2061 23.2282 22.3442 21.6768C23.1633 20.561 23.4678 20.0009 24.096 18.7387C19.4936 17.1753 18.7542 11.3365 23.3059 9.09794C21.9165 7.54106 19.9641 6.63937 18.1235 6.63937L18.1296 6.63721Z" fill="white"/>
<path d="M17.5969 0.811523C16.1471 0.899638 14.4557 1.72565 13.465 2.80411C12.5661 3.78148 11.8267 5.23132 12.1167 6.63738H12.2327C13.7767 6.63738 15.357 5.80542 16.28 4.73939C17.1692 3.72472 17.8433 2.28677 17.5969 0.811523Z" fill="white"/>
</svg>
