<svg width="121" height="39" viewBox="0 0 121 39" fill="none" xmlns="http://www.w3.org/2000/svg">
<g clip-path="url(#clip0_795_11787)">
<path d="M77.1513 7.23535L68.8477 31.7625H74.1603L75.9123 26.0915H83.1953L84.9474 31.7625H90.26L81.9563 7.23535H77.1513ZM77.3278 21.4975L79.5547 14.1872L81.7817 21.4975H77.3296H77.3278Z" fill="white"/>
<path d="M121 7.23535H116.062V31.7625H121V7.23535Z" fill="white"/>
<path d="M103.002 22.3235C107.536 22.0852 110.138 19.3397 110.138 14.7913C110.138 10.2428 107.236 7.23535 102.376 7.23535H93.0684V31.7625H98.0062V24.0974L104.767 31.7625H111.126L102.735 22.3362L103.002 22.3217V22.3235ZM98.0062 17.7532V11.8311H102.205C104.121 11.8311 105.133 12.8554 105.133 14.7931C105.133 16.7307 104.121 17.7532 102.205 17.7532H98.0062Z" fill="white"/>
<path d="M56.7208 31.7643H61.6568V11.8293H69.9459V7.23535H48.4316V11.8293H56.7208V31.7643Z" fill="white"/>
<path d="M0 10.7214V21.1883L15.321 38.296L37.0481 21.2502V10.7123L15.3902 0.703857L0 10.7214ZM13.4816 30.6764L3.71336 19.7692V13.838L13.4816 16.3506V30.6764ZM17.195 32.1064V17.3039L31.4044 20.9591L17.195 32.1064ZM33.3366 13.0848V17.6223L6.72081 10.7778L15.6958 4.93575L33.3348 13.0866L33.3366 13.0848Z" fill="white"/>
</g>
<defs>
<clipPath id="clip0_795_11787">
<rect width="121" height="37.5921" fill="white" transform="translate(0 0.703857)"/>
</clipPath>
</defs>
</svg>
