<svg width="62" height="62" viewBox="0 0 62 62" fill="none" xmlns="http://www.w3.org/2000/svg">
<circle cx="31" cy="31" r="29.5" stroke="black" stroke-width="3"/>
<path fill-rule="evenodd" clip-rule="evenodd" d="M18.2339 31.4135H23.1255C23.8306 31.4135 24.3594 31.9864 24.3594 32.6474V44.8984C24.3594 45.6035 23.7865 46.1323 23.1255 46.1323H18.2339C17.5288 46.1323 17 45.5595 17 44.8984V32.6474C17 31.9423 17.5729 31.4135 18.2339 31.4135Z" fill="#111111"/>
<path fill-rule="evenodd" clip-rule="evenodd" d="M28.5763 23.8778H33.4679C34.173 23.8778 34.7018 24.4507 34.7018 25.1118V44.9425C34.7018 45.6476 34.1289 46.1764 33.4679 46.1764H28.5763C27.8712 46.1764 27.3424 45.6035 27.3424 44.9425V25.1118C27.3424 24.4067 27.9153 23.8778 28.5763 23.8778Z" fill="#111111"/>
<path fill-rule="evenodd" clip-rule="evenodd" d="M38.8745 16.2981H43.7661C44.4712 16.2981 45 16.871 45 17.532V44.9425C45 45.6035 44.4272 46.1764 43.7661 46.1764H38.8745C38.2135 46.1764 37.6406 45.6035 37.6406 44.9425V17.532C37.6406 16.8269 38.2135 16.2981 38.8745 16.2981Z" fill="#111111"/>
</svg>
