<svg width="62" height="62" viewBox="0 0 62 62" fill="none" xmlns="http://www.w3.org/2000/svg">
<circle cx="31" cy="31" r="29" stroke="black" stroke-width="4"/>
<path fill-rule="evenodd" clip-rule="evenodd" d="M18.2339 27.4136H23.1255C23.8306 27.4136 24.3594 27.9865 24.3594 28.6475V40.8985C24.3594 41.6036 23.7865 42.1324 23.1255 42.1324H18.2339C17.5288 42.1324 17 41.5595 17 40.8985V28.6475C17 27.9424 17.5729 27.4136 18.2339 27.4136Z" fill="#111111"/>
<path fill-rule="evenodd" clip-rule="evenodd" d="M28.3413 18H33.6587C34.4251 18 35 18.6166 35 19.3281V40.6719C35 41.4308 34.3772 42 33.6587 42H28.3413C27.5749 42 27 41.3834 27 40.6719V19.3281C27 18.5692 27.6228 18 28.3413 18Z" fill="#111111"/>
<path fill-rule="evenodd" clip-rule="evenodd" d="M39.1737 30H43.8263C44.497 30 45 30.2301 45 30.4956V41.5044C45 41.7699 44.4551 42 43.8263 42H39.1737C38.5449 42 38 41.7699 38 41.5044V30.4956C38 30.2124 38.5449 30 39.1737 30Z" fill="#111111"/>
</svg>
